<svg version="1.1" id="Capa_1" xmlns="http://www.w3.org/2000/svg" xmlns:xlink="http://www.w3.org/1999/xlink" x="0px"
     y="0px"
     viewBox="0 0 381.12 381.12" style="enable-background:new 0 0 381.12 381.12;">
    <g>
        <g>
            <path fill="#333" d="M380,195.96c-2.135-2.212-4.494-4.196-7.04-5.92c-4.518-3.554-10.351-4.983-16-3.92c-4.242,1.259-8.701-1.158-9.96-5.4
			c-1.259-4.242,1.158-8.701,5.4-9.96c6.508-1.852,13.442-1.543,19.76,0.88c2.796,1.09,5.476,2.456,8,4.08
			c-2.234-29.514-11.358-58.092-26.64-83.44c-3.195-0.243-6.405-0.243-9.6,0c-8,0-14.24,2.08-15.2,4.32
			c-1.745,4.065-6.455,5.945-10.52,4.2s-5.945-6.455-4.2-10.52c3.9-7.218,11.118-12.04,19.28-12.88
			c3.003-0.672,6.051-1.127,9.12-1.36c-15.837-20.921-35.795-38.373-58.64-51.28c-2.72,1.36-5.6,2.88-8,4.48
			c-8.56,5.12-16,11.2-17.12,14.8c-0.87,3.689-4.211,6.261-8,6.16h-1.84c-4.277-1.028-6.922-5.317-5.92-9.6
			c2.944-7.902,8.432-14.6,15.6-19.04c2.72-2,5.44-3.76,8-5.36c-23.931-10.516-49.78-15.964-75.92-16h-5.68
			c-0.259,0.399-0.554,0.774-0.88,1.12c-2.267,2.186-4.304,4.599-6.08,7.2c-3.659,4.703-5.731,10.445-5.92,16.4c0,4.418-3.582,8-8,8
			s-8-3.582-8-8c-0.115-4.752,0.701-9.481,2.4-13.92c1.193-3.102,2.694-6.077,4.48-8.88c-26.963,3.964-52.751,13.706-75.6,28.56
			c0,0,0,0,0,0.56c-0.527,3.228-0.821,6.49-0.88,9.76c-0.901,6.113,0.313,12.351,3.44,17.68c3.314,3.159,3.439,8.406,0.28,11.72
			c-3.159,3.314-8.406,3.439-11.72,0.28c-4.528-4.732-7.344-10.843-8-17.36c-0.277-3.381-0.277-6.779,0-10.16
			C52.434,57.859,37.282,75.694,25.68,95.8c0.326,0.817,0.515,1.682,0.56,2.56c0.208,3.456,0.744,6.885,1.6,10.24
			c1.434,7.159,5.378,13.571,11.12,18.08c3.8,2.364,4.964,7.36,2.6,11.16c-2.364,3.8-7.36,4.964-11.16,2.6
			c-4.616-3.05-8.518-7.062-11.44-11.76c-1.866-3.164-3.395-6.516-4.56-10c-9.452,22.831-14.344,47.29-14.4,72v6
			c0.339,0.213,0.661,0.454,0.96,0.72c2.28,2.228,4.742,4.262,7.36,6.08c5.626,4.263,12.332,6.868,19.36,7.52c4.418,0,8,3.582,8,8
			s-3.582,8-8,8c-5.532-0.353-10.953-1.709-16-4c-3.081-1.335-6.05-2.913-8.88-4.72c3.779,25.79,12.849,50.521,26.64,72.64
			c0.585-0.071,1.175-0.071,1.76,0c3.09,1.102,6.277,1.905,9.52,2.4c5.153,1.23,10.571,0.665,15.36-1.6
			c3.585-2.583,8.585-1.77,11.167,1.815c2.583,3.585,1.77,8.585-1.815,11.167c-0.229,0.165-0.467,0.318-0.712,0.458
			c-3.558,2.191-7.538,3.609-11.68,4.16c-2.116,0.35-4.255,0.537-6.4,0.56h-3.6c15.639,19.397,34.904,35.564,56.72,47.6
			c0.509-0.27,1.045-0.485,1.6-0.64c3.071-0.615,6.054-1.609,8.88-2.96c5.026-1.936,9.1-5.752,11.36-10.64
			c1.385-4.196,5.908-6.474,10.104-5.09c4.196,1.385,6.474,5.908,5.09,10.104c-0.047,0.143-0.099,0.285-0.154,0.426
			c-1.833,4.947-4.888,9.351-8.88,12.8c-2.449,2.115-5.133,3.94-8,5.44c22.533,9.186,46.626,13.94,70.96,14v-0.56
			c2.24-2.4,4.4-5.04,6.4-8c4.092-4.584,7.051-10.064,8.64-16c-1.397-4.106,0.732-8.576,4.8-10.08
			c4.146-1.526,8.745,0.597,10.271,4.744c0.017,0.045,0.033,0.091,0.049,0.136c1.54,6.539,0.325,13.423-3.36,19.04
			c-1.639,3.055-3.483,5.995-5.52,8.8c27.295-2.994,53.61-11.893,77.12-26.08c0.232-3.223,0.232-6.458,0-9.68
			c0.284-4.151-0.574-8.301-2.48-12c-3.85-2.112-5.278-6.932-3.2-10.8c2.106-3.884,6.962-5.325,10.846-3.218
			c0.011,0.006,0.022,0.012,0.034,0.018c5.304,3.458,8.815,9.077,9.6,15.36c0.643,3.323,0.991,6.696,1.04,10.08
			c20.132-15.21,37.068-34.24,49.84-56c-1.17-3.031-2.56-5.972-4.16-8.8c-3.44-6.16-7.36-10.96-9.52-11.2
			c-4.418-0.552-7.552-4.582-7-9c0.552-4.418,4.582-7.552,9-7c6.478,1.215,12.221,4.92,16,10.32c1.965,2.526,3.73,5.2,5.28,8
			c10.253-22.667,15.935-47.134,16.72-72C380.712,196.693,380.336,196.345,380,195.96z M190.4,323.56
			c-73.388-0.044-132.844-59.572-132.8-132.96c0.044-73.388,59.572-132.844,132.96-132.8c73.356,0.044,132.8,59.524,132.8,132.88
			C323.316,264.081,263.801,323.56,190.4,323.56z"/>
        </g>
    </g>
</svg>
